<?xml version="1.0" encoding="utf-8"?>
<svg version="1.1" id="Layer_1" xmlns="http://www.w3.org/2000/svg" xmlns:xlink="http://www.w3.org/1999/xlink" x="0px" y="0px"
	 viewBox="0 0 286 278" style="enable-background:new 0 0 286 278;" xml:space="preserve">
<g>
	<path d="M187.9,98.2c-9.3-6.6-20.4-11.1-33.3-13.5c-1.9-0.4-3.9-0.3-5.8-0.9h-11.7c-0.1,0.3-0.3,0.3-0.5,0.3
		c-0.1,0-0.1,0-0.2,0h-0.1c-8.6,0.7-16.7,2.9-24.6,6.4c-4.7,2.1-9.1,4.7-13.2,7.6c-25.4,18.3-37.5,51.2-28.7,82.3
		c9.6,33.9,40.4,55.5,73.4,55.5c9.6,0,19.5-1.8,29.1-5.8c35.6-14.7,55-54.3,43.7-91.1C210.6,121.1,201.1,107.6,187.9,98.2z
		 M176.4,183.1c2.7,2.8,2.7,7.3,0,10c-2.8,2.7-7.3,2.7-10,0L143.3,170l-23.1,23.1c-2.7,2.7-7.2,2.7-9.9,0c-2.7-2.8-2.7-7.3,0-10
		l23.1-23.1l-23.1-23.1c-2.7-2.8-2.7-7.3,0-10c2.7-2.7,7.2-2.7,9.9,0l23.1,23.1l23.1-23.1c2.8-2.7,7.3-2.7,10,0
		c2.7,2.8,2.7,7.3,0,10L153.3,160L176.4,183.1z"/>
	<path d="M66.8,77.6c1.6,0.1,2.1-0.5,2.6-1.9C74.6,60,79.9,44.3,85.1,28.6c1.1-3.4,2.1-4.1,5.7-4.1
		c17.5,0,35,0,52.5,0c17.3,0,34.6,0,51.9,0c3.2,0,4.3,0.8,5.3,3.8c0.7,1.8,1.3,3.6,1.9,5.4c4.8,14.1,9.6,28.1,14.3,42.2
		c0.4,1.4,1,1.9,2.5,1.8c2.4-0.1,4.9,0,7.3,0c5.5,0,11,0,16.6,0c-0.2-0.7-0.3-1.3-0.5-1.8c-6.2-18.6-12.4-37.2-18.6-55.8
		C219.8,7.6,209.3,0,196.1,0C160.7,0,125.4,0,90,0C76.9,0,66.4,7.7,62.2,20.1C58,32.7,53.8,45.2,49.6,57.8
		c-2.2,6.6-4.4,13.1-6.6,19.6c0.5,0,1,0.1,1.4,0.1C51.9,77.5,59.3,77.5,66.8,77.6z"/>
	<path d="M286,107.6c0.1-6.2-4-9.6-9.5-9.6c-19.8,0.1-39.7,0.1-59.5,0.1c8,9.8,14.1,21.5,18.2,35
		c6.8,22.6,4.9,46.9-5.5,68.4c-10.3,21.4-28,38.1-49.8,47.1c-11.8,4.9-24.2,7.4-36.8,7.4c-20.4,0-40.8-6.8-57.3-19
		c-17.2-12.7-29.4-30.4-35.3-51.1c-6.3-22.1-4.4-45.8,5.4-66.7c3.5-7.7,8.1-14.7,13.4-21.1c-20.1,0-40.1,0-60.2,0
		c-5.8,0-9.1,3.3-9.1,9.1c0,13.1,0,26.2,0,39.3c0,5.6,3.3,8.9,8.9,8.9c4,0,7.9,0,11.9,0c1,0,1.5,0.2,1.6,1.3c0.3,2.4,0.7,4.7,1.1,7
		c2.4,15.8,4.7,31.5,7.1,47.3c2.3,15.8,4.7,31.5,7.1,47.3c0.5,2.8,0.7,5.8,1.6,8.6c2.4,7,8.6,11.1,16.8,11.1c41,0,81.9,0,122.8,0
		c17.3,0,34.6,0,51.9,0c9.1-0.1,15.7-6,16.9-15c0.7-5.5,1.6-10.9,2.4-16.3c2.3-15.8,4.7-31.5,7.1-47.3c2.1-14.2,4.3-28.3,6.3-42.4
		c0.2-1.6,0.9-1.7,2.2-1.7c3.8,0,7.5,0,11.3,0c5.7,0,9-3.3,9-9C286,133.4,285.9,120.5,286,107.6z"/>
</g>
</svg>
